<?xml version="1.0" encoding="UTF-8" standalone="no"?>
<!DOCTYPE svg PUBLIC "-//W3C//DTD SVG 1.1//EN" "http://www.w3.org/Graphics/SVG/1.1/DTD/svg11.dtd">
<!-- Created with Vectornator (http://vectornator.io/) -->
<svg height="100%" stroke-miterlimit="10" style="fill-rule:nonzero;clip-rule:evenodd;stroke-linecap:round;stroke-linejoin:round;" version="1.1" viewBox="0 0 36 36" width="100%" xml:space="preserve" xmlns="http://www.w3.org/2000/svg" xmlns:vectornator="http://vectornator.io" xmlns:xlink="http://www.w3.org/1999/xlink">
<defs/>
<clipPath id="ArtboardFrame">
<rect height="36" width="36" x="0" y="0"/>
</clipPath>
<g clip-path="url(#ArtboardFrame)" id="Untitled" vectornator:layerName="Untitled">
<path d="M27.819 33.653C28.46 32.997 29 32.072 29 30.801C29 27.652 25.355 24.048 24 21C22.667 18 21.896 15.125 23.917 14.312L24.087 14.239C24.665 14.021 25 13.769 25 13.5C25 13.04 24.03 12.628 22.506 12.353C24.0884 11.0256 25.0016 9.06545 25 7C25 3.13401 21.866-1.04308e-07 18-1.04308e-07C14.134-1.04308e-07 11 3.13401 11 7C10.9984 9.06545 11.9116 11.0256 13.494 12.353C11.97 12.628 11 13.04 11 13.5C11 13.769 11.335 14.021 11.914 14.239C11.97 14.263 12.02 14.287 12.083 14.312C14.104 15.125 13.333 18 12 21C10.645 24.048 7 27.652 7 30.801C7 32.072 7.54 32.997 8.181 33.653C7.432 34.058 7 34.515 7 35C7 35.351 7.233 35.687 7.639 36L28.36 36C28.767 35.687 29 35.351 29 35C29 34.515 28.568 34.058 27.819 33.653Z" fill="#bd93f9" fill-rule="nonzero" opacity="1" stroke="none" vectornator:layerName="path"/>
<path d="M22.001 4.75C21.7165 4.7499 21.4565 4.5893 21.329 4.335C21.299 4.277 20.463 2.75 18 2.75C15.537 2.75 14.702 4.277 14.667 4.343C14.4754 4.70782 14.0259 4.85052 13.659 4.663C13.2929 4.47746 13.1455 4.03108 13.329 3.664C13.378 3.566 14.576 1.25 18 1.25C21.424 1.25 22.621 3.566 22.671 3.665C22.7876 3.89728 22.7754 4.1734 22.6389 4.39453C22.5023 4.61567 22.2609 4.75021 22.001 4.75ZM22 14C21.9222 13.9998 21.8456 13.9817 21.776 13.947C21.772 13.946 20.788 13.5 18 13.5C15.211 13.5 14.228 13.946 14.218 13.95C13.9696 14.0669 13.6734 13.9627 13.553 13.716C13.433 13.4707 13.5329 13.1745 13.777 13.052C13.89 12.996 14.969 12.5 18 12.5C21.03 12.5 22.11 12.996 22.224 13.053C22.4312 13.1569 22.5399 13.3895 22.4865 13.6151C22.4332 13.8407 22.2318 14 22 14ZM10 34.5C9.73551 34.4971 9.51901 34.2888 9.50602 34.0246C9.49304 33.7604 9.68806 33.5318 9.951 33.503C10 33.497 15.01 33 18 33C20.99 33 25.999 33.497 26.05 33.503C26.182 33.5159 26.3034 33.5808 26.3873 33.6835C26.4712 33.7862 26.5107 33.9181 26.497 34.05C26.4841 34.182 26.4192 34.3034 26.3165 34.3873C26.2138 34.4712 26.0819 34.5107 25.95 34.497C25.9 34.492 20.94 34 18 34C15.059 34 10.1 34.492 10.05 34.497L10 34.5Z" fill="#ffffff" fill-rule="nonzero" opacity="1" stroke="none" vectornator:layerName="path"/>
</g>
</svg>
